<?xml version="1.0" encoding="UTF-8" standalone="no"?><!-- Generator: Gravit.io --><svg xmlns="http://www.w3.org/2000/svg" xmlns:xlink="http://www.w3.org/1999/xlink" style="isolation:isolate" viewBox="-5.953 642.857 355.107 57.246" width="355.107pt" height="57.246pt"><g><path d=" M 143.08 685.982 L 143.08 700.045 L 135.023 700.045 L 135.023 656.715 L 136.957 656.715 L 140.15 660.494 L 140.15 660.494 Q 141.234 659.469 142.523 658.561 L 142.523 658.561 L 142.523 658.561 Q 143.813 657.652 145.204 656.993 L 145.204 656.993 L 145.204 656.993 Q 146.596 656.334 148.09 655.953 L 148.09 655.953 L 148.09 655.953 Q 149.584 655.572 151.107 655.572 L 151.107 655.572 L 151.107 655.572 Q 154.418 655.572 157.333 656.759 L 157.333 656.759 L 157.333 656.759 Q 160.248 657.945 162.431 660.113 L 162.431 660.113 L 162.431 660.113 Q 164.613 662.281 165.873 665.343 L 165.873 665.343 L 165.873 665.343 Q 167.133 668.404 167.133 672.125 L 167.133 672.125 L 167.133 672.125 Q 167.133 675.992 165.873 679.083 L 165.873 679.083 L 165.873 679.083 Q 164.613 682.174 162.431 684.327 L 162.431 684.327 L 162.431 684.327 Q 160.248 686.48 157.333 687.623 L 157.333 687.623 L 157.333 687.623 Q 154.418 688.766 151.107 688.766 L 151.107 688.766 L 151.107 688.766 Q 150.053 688.766 149.013 688.531 L 149.013 688.531 L 149.013 688.531 Q 147.973 688.297 146.962 687.901 L 146.962 687.901 L 146.962 687.901 Q 145.951 687.506 144.97 687.008 L 144.97 687.008 L 144.97 687.008 Q 143.988 686.51 143.08 685.982 L 143.08 685.982 L 143.08 685.982 Z  M 159.105 672.125 L 159.105 672.125 L 159.105 672.125 Q 159.105 670.133 158.476 668.551 L 158.476 668.551 L 158.476 668.551 Q 157.846 666.969 156.762 665.87 L 156.762 665.87 L 156.762 665.87 Q 155.678 664.771 154.213 664.186 L 154.213 664.186 L 154.213 664.186 Q 152.748 663.6 151.107 663.6 L 151.107 663.6 L 151.107 663.6 Q 149.467 663.6 148.017 664.186 L 148.017 664.186 L 148.017 664.186 Q 146.566 664.771 145.482 665.87 L 145.482 665.87 L 145.482 665.87 Q 144.398 666.969 143.769 668.551 L 143.769 668.551 L 143.769 668.551 Q 143.139 670.133 143.139 672.125 L 143.139 672.125 L 143.139 672.125 Q 143.139 674.029 143.769 675.611 L 143.769 675.611 L 143.769 675.611 Q 144.398 677.193 145.482 678.307 L 145.482 678.307 L 145.482 678.307 Q 146.566 679.42 148.017 680.035 L 148.017 680.035 L 148.017 680.035 Q 149.467 680.65 151.107 680.65 L 151.107 680.65 L 151.107 680.65 Q 152.748 680.65 154.213 680.035 L 154.213 680.035 L 154.213 680.035 Q 155.678 679.42 156.762 678.307 L 156.762 678.307 L 156.762 678.307 Q 157.846 677.193 158.476 675.611 L 158.476 675.611 L 158.476 675.611 Q 159.105 674.029 159.105 672.125 Z  M 199.037 662.34 L 184.037 680.416 L 184.037 680.416 Q 184.506 680.562 184.975 680.606 L 184.975 680.606 L 184.975 680.606 Q 185.443 680.65 185.912 680.65 L 185.912 680.65 L 185.912 680.65 Q 187.084 680.65 188.168 680.328 L 188.168 680.328 L 188.168 680.328 Q 189.252 680.006 190.204 679.405 L 190.204 679.405 L 190.204 679.405 Q 191.156 678.805 191.903 677.94 L 191.903 677.94 L 191.903 677.94 Q 192.65 677.076 193.119 676.021 L 193.119 676.021 L 198.979 681.91 L 198.979 681.91 Q 197.865 683.492 196.415 684.752 L 196.415 684.752 L 196.415 684.752 Q 194.965 686.012 193.28 686.891 L 193.28 686.891 L 193.28 686.891 Q 191.596 687.77 189.735 688.224 L 189.735 688.224 L 189.735 688.224 Q 187.875 688.678 185.912 688.678 L 185.912 688.678 L 185.912 688.678 Q 182.602 688.678 179.687 687.447 L 179.687 687.447 L 179.687 687.447 Q 176.771 686.217 174.589 684.02 L 174.589 684.02 L 174.589 684.02 Q 172.406 681.822 171.146 678.79 L 171.146 678.79 L 171.146 678.79 Q 169.887 675.758 169.887 672.125 L 169.887 672.125 L 169.887 672.125 Q 169.887 668.404 171.146 665.328 L 171.146 665.328 L 171.146 665.328 Q 172.406 662.252 174.589 660.084 L 174.589 660.084 L 174.589 660.084 Q 176.771 657.916 179.687 656.715 L 179.687 656.715 L 179.687 656.715 Q 182.602 655.514 185.912 655.514 L 185.912 655.514 L 185.912 655.514 Q 187.875 655.514 189.75 655.982 L 189.75 655.982 L 189.75 655.982 Q 191.625 656.451 193.31 657.33 L 193.31 657.33 L 193.31 657.33 Q 194.994 658.209 196.459 659.483 L 196.459 659.483 L 196.459 659.483 Q 197.924 660.758 199.037 662.34 L 199.037 662.34 L 199.037 662.34 Z  M 178.822 676.285 L 188.139 663.922 L 188.139 663.922 Q 187.582 663.717 187.04 663.658 L 187.04 663.658 L 187.04 663.658 Q 186.498 663.6 185.912 663.6 L 185.912 663.6 L 185.912 663.6 Q 184.271 663.6 182.821 664.2 L 182.821 664.2 L 182.821 664.2 Q 181.371 664.801 180.302 665.914 L 180.302 665.914 L 180.302 665.914 Q 179.232 667.027 178.617 668.595 L 178.617 668.595 L 178.617 668.595 Q 178.002 670.162 178.002 672.125 L 178.002 672.125 L 178.002 672.125 Q 178.002 672.564 178.046 673.121 L 178.046 673.121 L 178.046 673.121 Q 178.09 673.678 178.192 674.249 L 178.192 674.249 L 178.192 674.249 Q 178.295 674.82 178.441 675.348 L 178.441 675.348 L 178.441 675.348 Q 178.588 675.875 178.822 676.285 L 178.822 676.285 L 178.822 676.285 Z  M 211.049 670.162 L 211.049 688.092 L 203.051 688.092 L 203.051 656.715 L 204.984 656.715 L 207.621 659.762 L 207.621 659.762 Q 209.555 658.004 212.001 657.052 L 212.001 657.052 L 212.001 657.052 Q 214.447 656.1 217.113 656.1 L 217.113 656.1 L 217.113 656.1 Q 219.984 656.1 222.533 657.198 L 222.533 657.198 L 222.533 657.198 Q 225.082 658.297 226.986 660.216 L 226.986 660.216 L 226.986 660.216 Q 228.891 662.135 229.989 664.698 L 229.989 664.698 L 229.989 664.698 Q 231.088 667.262 231.088 670.162 L 231.088 670.162 L 231.088 688.092 L 223.09 688.092 L 223.09 670.162 L 223.09 670.162 Q 223.09 668.932 222.621 667.833 L 222.621 667.833 L 222.621 667.833 Q 222.152 666.734 221.332 665.914 L 221.332 665.914 L 221.332 665.914 Q 220.512 665.094 219.428 664.625 L 219.428 664.625 L 219.428 664.625 Q 218.344 664.156 217.113 664.156 L 217.113 664.156 L 217.113 664.156 Q 215.854 664.156 214.74 664.625 L 214.74 664.625 L 214.74 664.625 Q 213.627 665.094 212.807 665.914 L 212.807 665.914 L 212.807 665.914 Q 211.986 666.734 211.518 667.833 L 211.518 667.833 L 211.518 667.833 Q 211.049 668.932 211.049 670.162 L 211.049 670.162 L 211.049 670.162 Z  M 259.096 672.125 L 259.096 672.125 L 259.096 672.125 Q 259.096 670.484 258.466 668.946 L 258.466 668.946 L 258.466 668.946 Q 257.836 667.408 256.752 666.222 L 256.752 666.222 L 256.752 666.222 Q 255.668 665.035 254.218 664.317 L 254.218 664.317 L 254.218 664.317 Q 252.768 663.6 251.127 663.6 L 251.127 663.6 L 251.127 663.6 Q 249.486 663.6 248.036 664.156 L 248.036 664.156 L 248.036 664.156 Q 246.586 664.713 245.517 665.797 L 245.517 665.797 L 245.517 665.797 Q 244.447 666.881 243.832 668.478 L 243.832 668.478 L 243.832 668.478 Q 243.217 670.074 243.217 672.125 L 243.217 672.125 L 243.217 672.125 Q 243.217 674.088 243.832 675.655 L 243.832 675.655 L 243.832 675.655 Q 244.447 677.223 245.517 678.336 L 245.517 678.336 L 245.517 678.336 Q 246.586 679.449 248.036 680.05 L 248.036 680.05 L 248.036 680.05 Q 249.486 680.65 251.127 680.65 L 251.127 680.65 L 251.127 680.65 Q 252.768 680.65 254.218 679.933 L 254.218 679.933 L 254.218 679.933 Q 255.668 679.215 256.752 678.028 L 256.752 678.028 L 256.752 678.028 Q 257.836 676.842 258.466 675.304 L 258.466 675.304 L 258.466 675.304 Q 259.096 673.766 259.096 672.125 Z  M 267.152 656.773 L 267.152 684.137 L 267.152 684.137 Q 267.152 687.447 265.893 690.348 L 265.893 690.348 L 265.893 690.348 Q 264.633 693.248 262.45 695.416 L 262.45 695.416 L 262.45 695.416 Q 260.268 697.584 257.353 698.844 L 257.353 698.844 L 257.353 698.844 Q 254.438 700.104 251.127 700.104 L 251.127 700.104 L 247.113 700.045 L 247.113 692.047 L 251.068 692.105 L 251.068 692.105 Q 252.943 692.105 254.262 691.622 L 254.262 691.622 L 254.262 691.622 Q 255.58 691.139 256.488 690.304 L 256.488 690.304 L 256.488 690.304 Q 257.396 689.469 257.938 688.385 L 257.938 688.385 L 257.938 688.385 Q 258.48 687.301 258.803 686.1 L 258.803 686.1 L 258.803 686.1 Q 258.334 686.861 257.455 687.345 L 257.455 687.345 L 257.455 687.345 Q 256.576 687.828 255.507 688.136 L 255.507 688.136 L 255.507 688.136 Q 254.438 688.443 253.28 688.561 L 253.28 688.561 L 253.28 688.561 Q 252.123 688.678 251.127 688.678 L 251.127 688.678 L 251.127 688.678 Q 247.816 688.678 244.901 687.535 L 244.901 687.535 L 244.901 687.535 Q 241.986 686.393 239.804 684.269 L 239.804 684.269 L 239.804 684.269 Q 237.621 682.145 236.361 679.068 L 236.361 679.068 L 236.361 679.068 Q 235.102 675.992 235.102 672.125 L 235.102 672.125 L 235.102 672.125 Q 235.102 668.58 236.361 665.533 L 236.361 665.533 L 236.361 665.533 Q 237.621 662.486 239.804 660.26 L 239.804 660.26 L 239.804 660.26 Q 241.986 658.033 244.901 656.773 L 244.901 656.773 L 244.901 656.773 Q 247.816 655.514 251.127 655.514 L 251.127 655.514 L 251.127 655.514 Q 252.65 655.514 254.145 655.895 L 254.145 655.895 L 254.145 655.895 Q 255.639 656.275 257.045 656.949 L 257.045 656.949 L 257.045 656.949 Q 258.451 657.623 259.726 658.531 L 259.726 658.531 L 259.726 658.531 Q 261 659.439 262.113 660.494 L 262.113 660.494 L 265.219 656.773 L 267.152 656.773 L 267.152 656.773 Z  M 298.939 688.092 L 296.303 684.43 L 296.303 684.43 Q 295.336 685.309 294.237 686.085 L 294.237 686.085 L 294.237 686.085 Q 293.139 686.861 291.938 687.433 L 291.938 687.433 L 291.938 687.433 Q 290.736 688.004 289.462 688.341 L 289.462 688.341 L 289.462 688.341 Q 288.188 688.678 286.869 688.678 L 286.869 688.678 L 286.869 688.678 Q 283.969 688.678 281.42 687.652 L 281.42 687.652 L 281.42 687.652 Q 278.871 686.627 276.952 684.737 L 276.952 684.737 L 276.952 684.737 Q 275.033 682.848 273.935 680.138 L 273.935 680.138 L 273.935 680.138 Q 272.836 677.428 272.836 674.059 L 272.836 674.059 L 272.836 656.715 L 280.805 656.715 L 280.805 674.059 L 280.805 674.059 Q 280.805 675.641 281.288 676.886 L 281.288 676.886 L 281.288 676.886 Q 281.771 678.131 282.592 678.98 L 282.592 678.98 L 282.592 678.98 Q 283.412 679.83 284.511 680.27 L 284.511 680.27 L 284.511 680.27 Q 285.609 680.709 286.869 680.709 L 286.869 680.709 L 286.869 680.709 Q 288.1 680.709 289.198 680.138 L 289.198 680.138 L 289.198 680.138 Q 290.297 679.566 291.117 678.629 L 291.117 678.629 L 291.117 678.629 Q 291.938 677.691 292.406 676.505 L 292.406 676.505 L 292.406 676.505 Q 292.875 675.318 292.875 674.059 L 292.875 674.059 L 292.875 656.715 L 300.873 656.715 L 300.873 688.092 L 298.939 688.092 L 298.939 688.092 Z  M 316.4 648.189 L 316.4 648.189 L 316.4 648.189 Q 316.4 649.303 315.976 650.27 L 315.976 650.27 L 315.976 650.27 Q 315.551 651.236 314.818 651.954 L 314.818 651.954 L 314.818 651.954 Q 314.086 652.672 313.104 653.097 L 313.104 653.097 L 313.104 653.097 Q 312.123 653.521 311.01 653.521 L 311.01 653.521 L 311.01 653.521 Q 309.896 653.521 308.915 653.097 L 308.915 653.097 L 308.915 653.097 Q 307.934 652.672 307.216 651.954 L 307.216 651.954 L 307.216 651.954 Q 306.498 651.236 306.073 650.27 L 306.073 650.27 L 306.073 650.27 Q 305.648 649.303 305.648 648.189 L 305.648 648.189 L 305.648 648.189 Q 305.648 647.105 306.073 646.124 L 306.073 646.124 L 306.073 646.124 Q 306.498 645.143 307.216 644.425 L 307.216 644.425 L 307.216 644.425 Q 307.934 643.707 308.915 643.282 L 308.915 643.282 L 308.915 643.282 Q 309.896 642.857 311.01 642.857 L 311.01 642.857 L 311.01 642.857 Q 312.123 642.857 313.104 643.282 L 313.104 643.282 L 313.104 643.282 Q 314.086 643.707 314.818 644.425 L 314.818 644.425 L 314.818 644.425 Q 315.551 645.143 315.976 646.124 L 315.976 646.124 L 315.976 646.124 Q 316.4 647.105 316.4 648.189 Z  M 315.023 656.715 L 315.023 688.092 L 306.967 688.092 L 306.967 656.715 L 315.023 656.715 L 315.023 656.715 Z  M 329.115 670.162 L 329.115 688.092 L 321.117 688.092 L 321.117 656.715 L 323.051 656.715 L 325.688 659.762 L 325.688 659.762 Q 327.621 658.004 330.067 657.052 L 330.067 657.052 L 330.067 657.052 Q 332.514 656.1 335.18 656.1 L 335.18 656.1 L 335.18 656.1 Q 338.051 656.1 340.6 657.198 L 340.6 657.198 L 340.6 657.198 Q 343.148 658.297 345.053 660.216 L 345.053 660.216 L 345.053 660.216 Q 346.957 662.135 348.056 664.698 L 348.056 664.698 L 348.056 664.698 Q 349.154 667.262 349.154 670.162 L 349.154 670.162 L 349.154 688.092 L 341.156 688.092 L 341.156 670.162 L 341.156 670.162 Q 341.156 668.932 340.688 667.833 L 340.688 667.833 L 340.688 667.833 Q 340.219 666.734 339.398 665.914 L 339.398 665.914 L 339.398 665.914 Q 338.578 665.094 337.494 664.625 L 337.494 664.625 L 337.494 664.625 Q 336.41 664.156 335.18 664.156 L 335.18 664.156 L 335.18 664.156 Q 333.92 664.156 332.807 664.625 L 332.807 664.625 L 332.807 664.625 Q 331.693 665.094 330.873 665.914 L 330.873 665.914 L 330.873 665.914 Q 330.053 666.734 329.584 667.833 L 329.584 667.833 L 329.584 667.833 Q 329.115 668.932 329.115 670.162 L 329.115 670.162 L 329.115 670.162 Z " fill="rgb(0,122,174)"/><path d=" M 2.104 685.982 L 2.104 700.045 L -5.953 700.045 L -5.953 656.715 L -4.02 656.715 L -0.826 660.494 L -0.826 660.494 Q 0.258 659.469 1.547 658.561 L 1.547 658.561 L 1.547 658.561 Q 2.836 657.652 4.228 656.993 L 4.228 656.993 L 4.228 656.993 Q 5.619 656.334 7.113 655.953 L 7.113 655.953 L 7.113 655.953 Q 8.607 655.572 10.131 655.572 L 10.131 655.572 L 10.131 655.572 Q 13.441 655.572 16.356 656.759 L 16.356 656.759 L 16.356 656.759 Q 19.271 657.945 21.454 660.113 L 21.454 660.113 L 21.454 660.113 Q 23.637 662.281 24.896 665.343 L 24.896 665.343 L 24.896 665.343 Q 26.156 668.404 26.156 672.125 L 26.156 672.125 L 26.156 672.125 Q 26.156 675.992 24.896 679.083 L 24.896 679.083 L 24.896 679.083 Q 23.637 682.174 21.454 684.327 L 21.454 684.327 L 21.454 684.327 Q 19.271 686.48 16.356 687.623 L 16.356 687.623 L 16.356 687.623 Q 13.441 688.766 10.131 688.766 L 10.131 688.766 L 10.131 688.766 Q 9.076 688.766 8.036 688.531 L 8.036 688.531 L 8.036 688.531 Q 6.996 688.297 5.985 687.901 L 5.985 687.901 L 5.985 687.901 Q 4.975 687.506 3.993 687.008 L 3.993 687.008 L 3.993 687.008 Q 3.012 686.51 2.104 685.982 L 2.104 685.982 L 2.104 685.982 Z  M 18.129 672.125 L 18.129 672.125 L 18.129 672.125 Q 18.129 670.133 17.499 668.551 L 17.499 668.551 L 17.499 668.551 Q 16.869 666.969 15.785 665.87 L 15.785 665.87 L 15.785 665.87 Q 14.701 664.771 13.236 664.186 L 13.236 664.186 L 13.236 664.186 Q 11.771 663.6 10.131 663.6 L 10.131 663.6 L 10.131 663.6 Q 8.49 663.6 7.04 664.186 L 7.04 664.186 L 7.04 664.186 Q 5.59 664.771 4.506 665.87 L 4.506 665.87 L 4.506 665.87 Q 3.422 666.969 2.792 668.551 L 2.792 668.551 L 2.792 668.551 Q 2.162 670.133 2.162 672.125 L 2.162 672.125 L 2.162 672.125 Q 2.162 674.029 2.792 675.611 L 2.792 675.611 L 2.792 675.611 Q 3.422 677.193 4.506 678.307 L 4.506 678.307 L 4.506 678.307 Q 5.59 679.42 7.04 680.035 L 7.04 680.035 L 7.04 680.035 Q 8.49 680.65 10.131 680.65 L 10.131 680.65 L 10.131 680.65 Q 11.771 680.65 13.236 680.035 L 13.236 680.035 L 13.236 680.035 Q 14.701 679.42 15.785 678.307 L 15.785 678.307 L 15.785 678.307 Q 16.869 677.193 17.499 675.611 L 17.499 675.611 L 17.499 675.611 Q 18.129 674.029 18.129 672.125 Z  M 60.961 656.773 L 60.961 688.092 L 59.027 688.092 L 55.922 683.785 L 55.922 683.785 Q 54.779 684.811 53.505 685.704 L 53.505 685.704 L 53.505 685.704 Q 52.23 686.598 50.824 687.257 L 50.824 687.257 L 50.824 687.257 Q 49.418 687.916 47.938 688.297 L 47.938 688.297 L 47.938 688.297 Q 46.459 688.678 44.936 688.678 L 44.936 688.678 L 44.936 688.678 Q 41.625 688.678 38.71 687.564 L 38.71 687.564 L 38.71 687.564 Q 35.795 686.451 33.612 684.327 L 33.612 684.327 L 33.612 684.327 Q 31.43 682.203 30.17 679.127 L 30.17 679.127 L 30.17 679.127 Q 28.91 676.051 28.91 672.125 L 28.91 672.125 L 28.91 672.125 Q 28.91 668.463 30.17 665.401 L 30.17 665.401 L 30.17 665.401 Q 31.43 662.34 33.612 660.143 L 33.612 660.143 L 33.612 660.143 Q 35.795 657.945 38.71 656.729 L 38.71 656.729 L 38.71 656.729 Q 41.625 655.514 44.936 655.514 L 44.936 655.514 L 44.936 655.514 Q 46.459 655.514 47.953 655.895 L 47.953 655.895 L 47.953 655.895 Q 49.447 656.275 50.854 656.949 L 50.854 656.949 L 50.854 656.949 Q 52.26 657.623 53.534 658.531 L 53.534 658.531 L 53.534 658.531 Q 54.809 659.439 55.922 660.494 L 55.922 660.494 L 59.027 656.773 L 60.961 656.773 L 60.961 656.773 Z  M 52.904 672.125 L 52.904 672.125 L 52.904 672.125 Q 52.904 670.484 52.274 668.946 L 52.274 668.946 L 52.274 668.946 Q 51.645 667.408 50.561 666.222 L 50.561 666.222 L 50.561 666.222 Q 49.477 665.035 48.026 664.317 L 48.026 664.317 L 48.026 664.317 Q 46.576 663.6 44.936 663.6 L 44.936 663.6 L 44.936 663.6 Q 43.295 663.6 41.845 664.156 L 41.845 664.156 L 41.845 664.156 Q 40.395 664.713 39.325 665.797 L 39.325 665.797 L 39.325 665.797 Q 38.256 666.881 37.641 668.478 L 37.641 668.478 L 37.641 668.478 Q 37.025 670.074 37.025 672.125 L 37.025 672.125 L 37.025 672.125 Q 37.025 674.176 37.641 675.772 L 37.641 675.772 L 37.641 675.772 Q 38.256 677.369 39.325 678.453 L 39.325 678.453 L 39.325 678.453 Q 40.395 679.537 41.845 680.094 L 41.845 680.094 L 41.845 680.094 Q 43.295 680.65 44.936 680.65 L 44.936 680.65 L 44.936 680.65 Q 46.576 680.65 48.026 679.933 L 48.026 679.933 L 48.026 679.933 Q 49.477 679.215 50.561 678.028 L 50.561 678.028 L 50.561 678.028 Q 51.645 676.842 52.274 675.304 L 52.274 675.304 L 52.274 675.304 Q 52.904 673.766 52.904 672.125 Z  M 89.379 672.125 L 89.379 672.125 L 89.379 672.125 Q 89.379 670.484 88.749 668.946 L 88.749 668.946 L 88.749 668.946 Q 88.119 667.408 87.035 666.222 L 87.035 666.222 L 87.035 666.222 Q 85.951 665.035 84.501 664.317 L 84.501 664.317 L 84.501 664.317 Q 83.051 663.6 81.41 663.6 L 81.41 663.6 L 81.41 663.6 Q 79.77 663.6 78.319 664.156 L 78.319 664.156 L 78.319 664.156 Q 76.869 664.713 75.8 665.797 L 75.8 665.797 L 75.8 665.797 Q 74.73 666.881 74.115 668.478 L 74.115 668.478 L 74.115 668.478 Q 73.5 670.074 73.5 672.125 L 73.5 672.125 L 73.5 672.125 Q 73.5 674.088 74.115 675.655 L 74.115 675.655 L 74.115 675.655 Q 74.73 677.223 75.8 678.336 L 75.8 678.336 L 75.8 678.336 Q 76.869 679.449 78.319 680.05 L 78.319 680.05 L 78.319 680.05 Q 79.77 680.65 81.41 680.65 L 81.41 680.65 L 81.41 680.65 Q 83.051 680.65 84.501 679.933 L 84.501 679.933 L 84.501 679.933 Q 85.951 679.215 87.035 678.028 L 87.035 678.028 L 87.035 678.028 Q 88.119 676.842 88.749 675.304 L 88.749 675.304 L 88.749 675.304 Q 89.379 673.766 89.379 672.125 Z  M 97.436 656.773 L 97.436 684.137 L 97.436 684.137 Q 97.436 687.447 96.176 690.348 L 96.176 690.348 L 96.176 690.348 Q 94.916 693.248 92.733 695.416 L 92.733 695.416 L 92.733 695.416 Q 90.551 697.584 87.636 698.844 L 87.636 698.844 L 87.636 698.844 Q 84.721 700.104 81.41 700.104 L 81.41 700.104 L 77.396 700.045 L 77.396 692.047 L 81.352 692.105 L 81.352 692.105 Q 83.227 692.105 84.545 691.622 L 84.545 691.622 L 84.545 691.622 Q 85.863 691.139 86.771 690.304 L 86.771 690.304 L 86.771 690.304 Q 87.68 689.469 88.222 688.385 L 88.222 688.385 L 88.222 688.385 Q 88.764 687.301 89.086 686.1 L 89.086 686.1 L 89.086 686.1 Q 88.617 686.861 87.738 687.345 L 87.738 687.345 L 87.738 687.345 Q 86.859 687.828 85.79 688.136 L 85.79 688.136 L 85.79 688.136 Q 84.721 688.443 83.563 688.561 L 83.563 688.561 L 83.563 688.561 Q 82.406 688.678 81.41 688.678 L 81.41 688.678 L 81.41 688.678 Q 78.1 688.678 75.185 687.535 L 75.185 687.535 L 75.185 687.535 Q 72.27 686.393 70.087 684.269 L 70.087 684.269 L 70.087 684.269 Q 67.904 682.145 66.645 679.068 L 66.645 679.068 L 66.645 679.068 Q 65.385 675.992 65.385 672.125 L 65.385 672.125 L 65.385 672.125 Q 65.385 668.58 66.645 665.533 L 66.645 665.533 L 66.645 665.533 Q 67.904 662.486 70.087 660.26 L 70.087 660.26 L 70.087 660.26 Q 72.27 658.033 75.185 656.773 L 75.185 656.773 L 75.185 656.773 Q 78.1 655.514 81.41 655.514 L 81.41 655.514 L 81.41 655.514 Q 82.934 655.514 84.428 655.895 L 84.428 655.895 L 84.428 655.895 Q 85.922 656.275 87.328 656.949 L 87.328 656.949 L 87.328 656.949 Q 88.734 657.623 90.009 658.531 L 90.009 658.531 L 90.009 658.531 Q 91.283 659.439 92.396 660.494 L 92.396 660.494 L 95.502 656.773 L 97.436 656.773 L 97.436 656.773 Z  M 131.01 662.34 L 116.01 680.416 L 116.01 680.416 Q 116.479 680.562 116.947 680.606 L 116.947 680.606 L 116.947 680.606 Q 117.416 680.65 117.885 680.65 L 117.885 680.65 L 117.885 680.65 Q 119.057 680.65 120.141 680.328 L 120.141 680.328 L 120.141 680.328 Q 121.225 680.006 122.177 679.405 L 122.177 679.405 L 122.177 679.405 Q 123.129 678.805 123.876 677.94 L 123.876 677.94 L 123.876 677.94 Q 124.623 677.076 125.092 676.021 L 125.092 676.021 L 130.951 681.91 L 130.951 681.91 Q 129.838 683.492 128.388 684.752 L 128.388 684.752 L 128.388 684.752 Q 126.938 686.012 125.253 686.891 L 125.253 686.891 L 125.253 686.891 Q 123.568 687.77 121.708 688.224 L 121.708 688.224 L 121.708 688.224 Q 119.848 688.678 117.885 688.678 L 117.885 688.678 L 117.885 688.678 Q 114.574 688.678 111.659 687.447 L 111.659 687.447 L 111.659 687.447 Q 108.744 686.217 106.562 684.02 L 106.562 684.02 L 106.562 684.02 Q 104.379 681.822 103.119 678.79 L 103.119 678.79 L 103.119 678.79 Q 101.859 675.758 101.859 672.125 L 101.859 672.125 L 101.859 672.125 Q 101.859 668.404 103.119 665.328 L 103.119 665.328 L 103.119 665.328 Q 104.379 662.252 106.562 660.084 L 106.562 660.084 L 106.562 660.084 Q 108.744 657.916 111.659 656.715 L 111.659 656.715 L 111.659 656.715 Q 114.574 655.514 117.885 655.514 L 117.885 655.514 L 117.885 655.514 Q 119.848 655.514 121.723 655.982 L 121.723 655.982 L 121.723 655.982 Q 123.598 656.451 125.282 657.33 L 125.282 657.33 L 125.282 657.33 Q 126.967 658.209 128.432 659.483 L 128.432 659.483 L 128.432 659.483 Q 129.896 660.758 131.01 662.34 L 131.01 662.34 L 131.01 662.34 Z  M 110.795 676.285 L 120.111 663.922 L 120.111 663.922 Q 119.555 663.717 119.013 663.658 L 119.013 663.658 L 119.013 663.658 Q 118.471 663.6 117.885 663.6 L 117.885 663.6 L 117.885 663.6 Q 116.244 663.6 114.794 664.2 L 114.794 664.2 L 114.794 664.2 Q 113.344 664.801 112.274 665.914 L 112.274 665.914 L 112.274 665.914 Q 111.205 667.027 110.59 668.595 L 110.59 668.595 L 110.59 668.595 Q 109.975 670.162 109.975 672.125 L 109.975 672.125 L 109.975 672.125 Q 109.975 672.564 110.019 673.121 L 110.019 673.121 L 110.019 673.121 Q 110.063 673.678 110.165 674.249 L 110.165 674.249 L 110.165 674.249 Q 110.268 674.82 110.414 675.348 L 110.414 675.348 L 110.414 675.348 Q 110.561 675.875 110.795 676.285 L 110.795 676.285 L 110.795 676.285 Z " fill="rgb(0,69,98)"/></g></svg>